<svg width="1440" height="266" viewBox="0 0 1440 266" fill="none" xmlns="http://www.w3.org/2000/svg">
<path d="M-114 180.353C-111.539 168.048 -94.0735 153.989 -86.9549 144.684C-60.0726 109.549 -30.9225 73.5499 -12.2865 33.1718C-11.7633 32.0383 2.30823 3.72011 -5.23117 12.2019C-24.9905 34.4312 -35.3664 67.6368 -42.6634 95.6895C-47.196 113.115 -59.3352 144.308 -48.9347 161.931C-36.5127 182.979 -8.9547 168.215 4.17587 156.835C29.2983 135.062 57.1489 80.1879 94.1308 110.584C134.713 143.939 180.045 162.323 233.277 162.323C261.405 162.323 287.34 151.637 314.412 145.468C351.281 137.068 388.053 132.344 424.161 120.383C474.726 103.633 526.008 68.7982 581.337 75.3075C651.359 83.5454 698.258 150.601 767.91 162.715C794.378 167.318 803.805 147.146 813.77 125.87C832.938 84.944 850.322 40.1766 893.73 19.2572C956.501 -10.9941 1021.15 10.6214 1075.99 45.5186C1088.69 53.5979 1068.18 50.4286 1064.62 49.8301C1040.67 45.7924 1006.76 40.7238 983.684 50.614C955.868 62.5353 933.618 99.6917 914.699 121.559C899.917 138.645 856.23 198.626 826.704 186.232C804.994 177.119 809.982 128.011 811.026 110.584C812.904 79.2286 821.455 47.3906 853.358 34.7397C891.712 19.53 930.742 42.8826 959.579 66.6844C1023.9 119.773 1019.98 143.589 1075.99 205C1093.07 223.728 1148.98 106.687 1238.66 96.4069C1246.94 95.457 1255.6 95.9014 1263.28 99.137C1319.85 122.952 1269.29 232.83 1310.83 257.708C1326.52 267.106 1346.19 258.517 1362.48 250.197C1437.39 211.934 1479.32 179.791 1554.57 127.438" stroke="#1B7DFA" stroke-width="8" stroke-linecap="round"/>
</svg>
